<svg xmlns="http://www.w3.org/2000/svg" viewBox="0 0 32 32">
  <!-- Network nodes -->
  <circle cx="6" cy="6" r="1.5" fill="#00d4ff"/>
  <circle cx="16" cy="4" r="1.5" fill="#00d4ff"/>
  <circle cx="26" cy="8" r="1.5" fill="#00d4ff"/>
  <circle cx="4" cy="16" r="1.5" fill="#00d4ff"/>
  <circle cx="16" cy="16" r="2" fill="#00d4ff"/>
  <circle cx="28" cy="16" r="1.5" fill="#00d4ff"/>
  <circle cx="8" cy="26" r="1.5" fill="#00d4ff"/>
  <circle cx="20" cy="28" r="1.5" fill="#00d4ff"/>
  <circle cx="26" cy="24" r="1.5" fill="#00d4ff"/>
  
  <!-- Network connections -->
  <line x1="6" y1="6" x2="16" y2="16" stroke="#00d4ff" stroke-width="0.5" opacity="0.6"/>
  <line x1="16" y1="4" x2="16" y2="16" stroke="#00d4ff" stroke-width="0.5" opacity="0.6"/>
  <line x1="26" y1="8" x2="16" y2="16" stroke="#00d4ff" stroke-width="0.5" opacity="0.6"/>
  <line x1="4" y1="16" x2="16" y2="16" stroke="#00d4ff" stroke-width="0.5" opacity="0.6"/>
  <line x1="28" y1="16" x2="16" y2="16" stroke="#00d4ff" stroke-width="0.5" opacity="0.6"/>
  <line x1="8" y1="26" x2="16" y2="16" stroke="#00d4ff" stroke-width="0.5" opacity="0.6"/>
  <line x1="20" y1="28" x2="16" y2="16" stroke="#00d4ff" stroke-width="0.5" opacity="0.6"/>
  <line x1="26" y1="24" x2="16" y2="16" stroke="#00d4ff" stroke-width="0.5" opacity="0.6"/>
  
  <!-- Additional connections -->
  <line x1="6" y1="6" x2="4" y2="16" stroke="#00d4ff" stroke-width="0.3" opacity="0.4"/>
  <line x1="26" y1="8" x2="28" y2="16" stroke="#00d4ff" stroke-width="0.3" opacity="0.4"/>
  <line x1="20" y1="28" x2="26" y2="24" stroke="#00d4ff" stroke-width="0.3" opacity="0.4"/>
</svg>
